<svg xmlns="http://www.w3.org/2000/svg" xmlns:xlink="http://www.w3.org/1999/xlink" width="382" zoomAndPan="magnify" viewBox="0 0 286.5 80.249996" height="107" preserveAspectRatio="xMidYMid meet" version="1.0"><defs><g/><clipPath id="5ccce2fe9e"><path d="M 45 35 L 51 35 L 51 64.203125 L 45 64.203125 Z M 45 35 " clip-rule="nonzero"/></clipPath><clipPath id="97395e399c"><path d="M 23 35 L 29 35 L 29 64.203125 L 23 64.203125 Z M 23 35 " clip-rule="nonzero"/></clipPath><clipPath id="4f4a32d581"><path d="M 1.078125 14.417969 L 73.15625 14.417969 L 73.15625 52 L 1.078125 52 Z M 1.078125 14.417969 " clip-rule="nonzero"/></clipPath></defs><path fill="#6b6b6b" d="M 12.273438 55.757812 C 12.269531 57.035156 13.304688 58.066406 14.582031 58.070312 C 15.859375 58.070312 16.890625 57.035156 16.894531 55.757812 L 16.910156 30.109375 L 12.289062 26.257812 L 12.273438 55.757812 " fill-opacity="1" fill-rule="nonzero"/><g clip-path="url(#5ccce2fe9e)"><path fill="#6b6b6b" d="M 45.957031 39.46875 L 45.972656 62.109375 C 45.976562 63.382812 47.007812 64.417969 48.285156 64.417969 C 49.5625 64.414062 50.597656 63.378906 50.597656 62.101562 L 50.574219 35.621094 L 45.957031 39.46875 " fill-opacity="1" fill-rule="nonzero"/></g><g clip-path="url(#97395e399c)"><path fill="#6b6b6b" d="M 23.5 62.101562 C 23.496094 63.378906 24.53125 64.414062 25.808594 64.417969 C 27.085938 64.417969 28.117188 63.382812 28.117188 62.109375 L 28.136719 39.472656 L 23.515625 35.621094 L 23.5 62.101562 " fill-opacity="1" fill-rule="nonzero"/></g><path fill="#6b6b6b" d="M 57.183594 30.109375 L 57.199219 55.757812 C 57.203125 57.035156 58.238281 58.070312 59.511719 58.070312 C 60.789062 58.066406 61.824219 57.035156 61.824219 55.757812 L 61.804688 26.257812 L 57.183594 30.109375 " fill-opacity="1" fill-rule="nonzero"/><g clip-path="url(#4f4a32d581)"><path fill="#6b6b6b" d="M 71.863281 14.84375 C 71.15625 14.429688 70.28125 14.421875 69.566406 14.820312 L 37.046875 32.972656 L 4.527344 14.820312 C 3.8125 14.421875 2.9375 14.429688 2.230469 14.84375 C 1.523438 15.261719 1.089844 16.019531 1.089844 16.839844 L 1.101562 49.445312 C 1.101562 50.722656 2.136719 51.757812 3.410156 51.757812 C 4.6875 51.757812 5.722656 50.722656 5.722656 49.445312 L 5.714844 20.773438 L 35.917969 37.636719 C 36.621094 38.027344 37.472656 38.027344 38.171875 37.636719 L 68.378906 20.773438 L 68.375 20.777344 L 68.378906 20.773438 L 68.371094 49.445312 C 68.371094 50.722656 69.40625 51.757812 70.683594 51.757812 C 71.320312 51.757812 71.898438 51.5 72.316406 51.082031 C 72.734375 50.664062 72.992188 50.085938 72.992188 49.445312 L 73.003906 16.839844 C 73.003906 16.019531 72.570312 15.261719 71.863281 14.84375 " fill-opacity="1" fill-rule="nonzero"/></g><g fill="#242424" fill-opacity="1"><g transform="translate(73.025587, 54.369234)"><g><path d="M 25.46875 -29.421875 C 26 -29.421875 26.429688 -29.242188 26.765625 -28.890625 C 27.109375 -28.546875 27.28125 -28.109375 27.28125 -27.578125 L 27.28125 -2.0625 C 27.28125 -1.46875 27.085938 -0.972656 26.703125 -0.578125 C 26.328125 -0.191406 25.847656 0 25.265625 0 C 24.953125 0 24.648438 -0.046875 24.359375 -0.140625 C 24.066406 -0.242188 23.832031 -0.394531 23.65625 -0.59375 L 7.140625 -22.109375 L 7.140625 -1.84375 C 7.140625 -1.3125 6.960938 -0.867188 6.609375 -0.515625 C 6.265625 -0.171875 5.828125 0 5.296875 0 C 4.765625 0 4.328125 -0.171875 3.984375 -0.515625 C 3.648438 -0.867188 3.484375 -1.3125 3.484375 -1.84375 L 3.484375 -27.40625 C 3.484375 -27.988281 3.671875 -28.46875 4.046875 -28.84375 C 4.429688 -29.226562 4.90625 -29.421875 5.46875 -29.421875 C 5.800781 -29.421875 6.117188 -29.359375 6.421875 -29.234375 C 6.734375 -29.109375 6.972656 -28.929688 7.140625 -28.703125 L 23.625 -7.140625 L 23.625 -27.578125 C 23.625 -28.109375 23.796875 -28.546875 24.140625 -28.890625 C 24.492188 -29.242188 24.9375 -29.421875 25.46875 -29.421875 Z M 25.46875 -29.421875 "/></g></g></g><g fill="#242424" fill-opacity="1"><g transform="translate(100.630029, 54.369234)"><g><path d="M 20.140625 -3.859375 C 20.722656 -3.859375 21.203125 -3.660156 21.578125 -3.265625 C 21.960938 -2.878906 22.15625 -2.421875 22.15625 -1.890625 C 22.15625 -1.328125 21.960938 -0.867188 21.578125 -0.515625 C 21.203125 -0.171875 20.722656 0 20.140625 0 L 5.5 0 C 4.945312 0 4.472656 -0.191406 4.078125 -0.578125 C 3.679688 -0.972656 3.484375 -1.453125 3.484375 -2.015625 L 3.484375 -27.40625 C 3.484375 -27.96875 3.679688 -28.441406 4.078125 -28.828125 C 4.472656 -29.222656 4.945312 -29.421875 5.5 -29.421875 L 20.140625 -29.421875 C 20.722656 -29.421875 21.203125 -29.238281 21.578125 -28.875 C 21.960938 -28.507812 22.15625 -28.035156 22.15625 -27.453125 C 22.15625 -26.890625 21.960938 -26.429688 21.578125 -26.078125 C 21.203125 -25.734375 20.722656 -25.5625 20.140625 -25.5625 L 7.65625 -25.5625 L 7.65625 -16.984375 L 18.234375 -16.984375 C 18.828125 -16.984375 19.3125 -16.800781 19.6875 -16.4375 C 20.070312 -16.070312 20.265625 -15.609375 20.265625 -15.046875 C 20.265625 -14.460938 20.070312 -14 19.6875 -13.65625 C 19.3125 -13.320312 18.828125 -13.15625 18.234375 -13.15625 L 7.65625 -13.15625 L 7.65625 -3.859375 Z M 20.140625 -3.859375 "/></g></g></g><g fill="#242424" fill-opacity="1"><g transform="translate(121.427637, 54.369234)"><g><path d="M 24.546875 -3.03125 C 24.796875 -2.6875 24.921875 -2.28125 24.921875 -1.8125 C 24.921875 -1.21875 24.71875 -0.738281 24.3125 -0.375 C 23.90625 -0.0078125 23.453125 0.171875 22.953125 0.171875 C 22.242188 0.171875 21.695312 -0.109375 21.3125 -0.671875 L 13.15625 -11.59375 L 5.171875 -0.71875 C 4.753906 -0.125 4.207031 0.171875 3.53125 0.171875 C 3.03125 0.171875 2.601562 0 2.25 -0.34375 C 1.894531 -0.695312 1.71875 -1.101562 1.71875 -1.5625 C 1.71875 -2.03125 1.890625 -2.488281 2.234375 -2.9375 L 10.84375 -14.671875 L 2.1875 -26.3125 C 1.90625 -26.675781 1.765625 -27.082031 1.765625 -27.53125 C 1.765625 -28.09375 1.96875 -28.566406 2.375 -28.953125 C 2.78125 -29.347656 3.25 -29.546875 3.78125 -29.546875 C 4.09375 -29.546875 4.394531 -29.472656 4.6875 -29.328125 C 4.976562 -29.191406 5.222656 -28.984375 5.421875 -28.703125 L 13.484375 -17.859375 L 21.484375 -28.578125 C 21.953125 -29.191406 22.484375 -29.5 23.078125 -29.5 C 23.578125 -29.5 24.015625 -29.3125 24.390625 -28.9375 C 24.773438 -28.5625 24.96875 -28.132812 24.96875 -27.65625 C 24.96875 -27.238281 24.828125 -26.832031 24.546875 -26.4375 L 15.796875 -14.75 Z M 24.546875 -3.03125 "/></g></g></g><g fill="#242424" fill-opacity="1"><g transform="translate(144.914369, 54.369234)"><g><path d="M 22.578125 -29.421875 C 23.160156 -29.421875 23.640625 -29.242188 24.015625 -28.890625 C 24.398438 -28.546875 24.59375 -28.078125 24.59375 -27.484375 C 24.59375 -26.898438 24.398438 -26.4375 24.015625 -26.09375 C 23.640625 -25.757812 23.160156 -25.59375 22.578125 -25.59375 L 15.09375 -25.59375 L 15.09375 -2.015625 C 15.09375 -1.453125 14.890625 -0.972656 14.484375 -0.578125 C 14.078125 -0.191406 13.566406 0 12.953125 0 C 12.328125 0 11.8125 -0.191406 11.40625 -0.578125 C 11 -0.972656 10.796875 -1.453125 10.796875 -2.015625 L 10.796875 -25.59375 L 3.359375 -25.59375 C 2.773438 -25.59375 2.289062 -25.765625 1.90625 -26.109375 C 1.53125 -26.460938 1.34375 -26.9375 1.34375 -27.53125 C 1.34375 -28.09375 1.53125 -28.546875 1.90625 -28.890625 C 2.289062 -29.242188 2.773438 -29.421875 3.359375 -29.421875 Z M 22.578125 -29.421875 "/></g></g></g><g fill="#6b6b6b" fill-opacity="1"><g transform="translate(167.695501, 54.369234)"><g><path d="M 4.40625 -0.046875 C 3.738281 -0.046875 3.226562 -0.226562 2.875 -0.59375 C 2.53125 -0.957031 2.359375 -1.488281 2.359375 -2.1875 L 2.359375 -2.984375 C 2.359375 -3.660156 2.53125 -4.175781 2.875 -4.53125 C 3.226562 -4.894531 3.738281 -5.078125 4.40625 -5.078125 L 4.828125 -5.078125 C 5.535156 -5.078125 6.0625 -4.894531 6.40625 -4.53125 C 6.757812 -4.175781 6.9375 -3.660156 6.9375 -2.984375 L 6.9375 -2.1875 C 6.9375 -0.757812 6.234375 -0.046875 4.828125 -0.046875 Z M 4.40625 -0.046875 "/></g></g></g><g fill="#242424" fill-opacity="1"><g transform="translate(173.837319, 54.369234)"><g><path d="M 15.84375 -29.421875 C 18.476562 -29.421875 20.734375 -28.757812 22.609375 -27.4375 C 24.484375 -26.125 25.894531 -24.351562 26.84375 -22.125 C 27.800781 -19.894531 28.28125 -17.425781 28.28125 -14.71875 C 28.28125 -11.96875 27.800781 -9.476562 26.84375 -7.25 C 25.894531 -5.019531 24.484375 -3.253906 22.609375 -1.953125 C 20.734375 -0.648438 18.476562 0 15.84375 0 L 5.5 0 C 4.945312 0 4.472656 -0.191406 4.078125 -0.578125 C 3.679688 -0.972656 3.484375 -1.453125 3.484375 -2.015625 L 3.484375 -27.40625 C 3.484375 -27.96875 3.679688 -28.441406 4.078125 -28.828125 C 4.472656 -29.222656 4.945312 -29.421875 5.5 -29.421875 Z M 15.421875 -3.859375 C 18.285156 -3.859375 20.429688 -4.875 21.859375 -6.90625 C 23.285156 -8.945312 24 -11.550781 24 -14.71875 C 24 -17.851562 23.273438 -20.441406 21.828125 -22.484375 C 20.390625 -24.535156 18.253906 -25.5625 15.421875 -25.5625 L 7.65625 -25.5625 L 7.65625 -3.859375 Z M 15.421875 -3.859375 "/></g></g></g><g fill="#242424" fill-opacity="1"><g transform="translate(200.811497, 54.369234)"><g><path d="M 20.140625 -3.859375 C 20.722656 -3.859375 21.203125 -3.660156 21.578125 -3.265625 C 21.960938 -2.878906 22.15625 -2.421875 22.15625 -1.890625 C 22.15625 -1.328125 21.960938 -0.867188 21.578125 -0.515625 C 21.203125 -0.171875 20.722656 0 20.140625 0 L 5.5 0 C 4.945312 0 4.472656 -0.191406 4.078125 -0.578125 C 3.679688 -0.972656 3.484375 -1.453125 3.484375 -2.015625 L 3.484375 -27.40625 C 3.484375 -27.96875 3.679688 -28.441406 4.078125 -28.828125 C 4.472656 -29.222656 4.945312 -29.421875 5.5 -29.421875 L 20.140625 -29.421875 C 20.722656 -29.421875 21.203125 -29.238281 21.578125 -28.875 C 21.960938 -28.507812 22.15625 -28.035156 22.15625 -27.453125 C 22.15625 -26.890625 21.960938 -26.429688 21.578125 -26.078125 C 21.203125 -25.734375 20.722656 -25.5625 20.140625 -25.5625 L 7.65625 -25.5625 L 7.65625 -16.984375 L 18.234375 -16.984375 C 18.828125 -16.984375 19.3125 -16.800781 19.6875 -16.4375 C 20.070312 -16.070312 20.265625 -15.609375 20.265625 -15.046875 C 20.265625 -14.460938 20.070312 -14 19.6875 -13.65625 C 19.3125 -13.320312 18.828125 -13.15625 18.234375 -13.15625 L 7.65625 -13.15625 L 7.65625 -3.859375 Z M 20.140625 -3.859375 "/></g></g></g><g fill="#242424" fill-opacity="1"><g transform="translate(221.609105, 54.369234)"><g><path d="M 24.875 -29.46875 C 25.4375 -29.46875 25.921875 -29.285156 26.328125 -28.921875 C 26.734375 -28.554688 26.9375 -28.109375 26.9375 -27.578125 C 26.9375 -27.296875 26.867188 -26.984375 26.734375 -26.640625 L 16.015625 -1.296875 C 15.816406 -0.878906 15.535156 -0.554688 15.171875 -0.328125 C 14.804688 -0.109375 14.425781 0 14.03125 0 C 13.664062 -0.03125 13.320312 -0.148438 13 -0.359375 C 12.6875 -0.566406 12.429688 -0.867188 12.234375 -1.265625 L 1.515625 -26.640625 C 1.398438 -26.867188 1.34375 -27.164062 1.34375 -27.53125 C 1.34375 -28.113281 1.550781 -28.585938 1.96875 -28.953125 C 2.394531 -29.316406 2.859375 -29.5 3.359375 -29.5 C 4.203125 -29.5 4.820312 -29.050781 5.21875 -28.15625 L 14.375 -6.515625 L 23.03125 -28.203125 C 23.226562 -28.597656 23.488281 -28.90625 23.8125 -29.125 C 24.132812 -29.351562 24.488281 -29.46875 24.875 -29.46875 Z M 24.875 -29.46875 "/></g></g></g></svg>