<svg xmlns="http://www.w3.org/2000/svg" xmlns:xlink="http://www.w3.org/1999/xlink" width="94" zoomAndPan="magnify" viewBox="0 0 70.5 49.499998" height="66" preserveAspectRatio="xMidYMid meet" version="1.0"><defs><clipPath id="6df8fa6b34"><path d="M 43 20 L 49 20 L 49 48.261719 L 43 48.261719 Z M 43 20 " clip-rule="nonzero"/></clipPath><clipPath id="faad2d2c1a"><path d="M 21 20 L 27 20 L 27 48.261719 L 21 48.261719 Z M 21 20 " clip-rule="nonzero"/></clipPath><clipPath id="875bf2374e"><path d="M 0.105469 0 L 69.898438 0 L 69.898438 37 L 0.105469 37 Z M 0.105469 0 " clip-rule="nonzero"/></clipPath><clipPath id="7c36d651cc"><path d="M 30.632812 39.8125 L 39.222656 39.8125 L 39.222656 48.402344 L 30.632812 48.402344 Z M 30.632812 39.8125 " clip-rule="nonzero"/></clipPath><clipPath id="91da690e09"><path d="M 34.925781 39.8125 C 32.554688 39.8125 30.632812 41.734375 30.632812 44.105469 C 30.632812 46.480469 32.554688 48.402344 34.925781 48.402344 C 37.300781 48.402344 39.222656 46.480469 39.222656 44.105469 C 39.222656 41.734375 37.300781 39.8125 34.925781 39.8125 Z M 34.925781 39.8125 " clip-rule="nonzero"/></clipPath></defs><path fill="#6b6b6b" d="M 10.941406 40.023438 C 10.941406 41.257812 11.941406 42.261719 13.175781 42.261719 C 14.414062 42.261719 15.414062 41.261719 15.414062 40.027344 L 15.429688 15.195312 L 10.957031 11.464844 L 10.941406 40.023438 " fill-opacity="1" fill-rule="nonzero"/><g clip-path="url(#6df8fa6b34)"><path fill="#6b6b6b" d="M 43.554688 24.253906 L 43.570312 46.171875 C 43.570312 47.40625 44.574219 48.40625 45.808594 48.40625 C 47.042969 48.40625 48.046875 47.402344 48.042969 46.167969 L 48.023438 20.527344 L 43.554688 24.253906 " fill-opacity="1" fill-rule="nonzero"/></g><g clip-path="url(#faad2d2c1a)"><path fill="#6b6b6b" d="M 21.808594 46.167969 C 21.808594 47.402344 22.808594 48.40625 24.046875 48.40625 C 25.28125 48.40625 26.285156 47.40625 26.285156 46.171875 L 26.300781 24.257812 L 21.828125 20.527344 L 21.808594 46.167969 " fill-opacity="1" fill-rule="nonzero"/></g><path fill="#6b6b6b" d="M 54.421875 15.191406 L 54.4375 40.027344 C 54.441406 41.261719 55.441406 42.261719 56.675781 42.261719 C 56.675781 42.261719 56.675781 42.261719 56.679688 42.261719 C 57.914062 42.261719 58.914062 41.257812 58.914062 40.023438 L 58.894531 11.464844 L 54.421875 15.191406 " fill-opacity="1" fill-rule="nonzero"/><g clip-path="url(#875bf2374e)"><path fill="#6b6b6b" d="M 68.632812 0.414062 C 67.949219 0.0117188 67.101562 0.00390625 66.410156 0.390625 L 34.925781 17.964844 L 3.441406 0.390625 C 2.75 0.00390625 1.902344 0.0117188 1.21875 0.414062 C 0.535156 0.816406 0.117188 1.550781 0.117188 2.34375 L 0.125 33.914062 C 0.125 35.152344 1.125 36.152344 2.363281 36.152344 C 3.597656 36.152344 4.597656 35.148438 4.597656 33.914062 L 4.589844 6.15625 L 33.835938 22.480469 C 34.515625 22.859375 35.339844 22.859375 36.015625 22.480469 L 65.261719 6.15625 L 65.257812 6.15625 L 65.261719 6.15625 L 65.253906 33.914062 C 65.253906 35.148438 66.253906 36.152344 67.492188 36.152344 C 68.109375 36.152344 68.667969 35.902344 69.074219 35.496094 C 69.476562 35.09375 69.726562 34.53125 69.730469 33.914062 L 69.738281 2.34375 C 69.738281 1.550781 69.316406 0.816406 68.632812 0.414062 " fill-opacity="1" fill-rule="nonzero"/></g><g clip-path="url(#7c36d651cc)"><g clip-path="url(#91da690e09)"><path fill="#6b6b6b" d="M 30.632812 39.8125 L 39.222656 39.8125 L 39.222656 48.402344 L 30.632812 48.402344 Z M 30.632812 39.8125 " fill-opacity="1" fill-rule="nonzero"/></g></g></svg>