<svg xmlns="http://www.w3.org/2000/svg" xmlns:xlink="http://www.w3.org/1999/xlink" width="410" zoomAndPan="magnify" viewBox="0 0 307.5 72.749999" height="97" preserveAspectRatio="xMidYMid meet" version="1.0"><defs><g/><clipPath id="3bdece90e7"><path d="M 44 32 L 49 32 L 49 60.308594 L 44 60.308594 Z M 44 32 " clip-rule="nonzero"/></clipPath><clipPath id="527f9092bc"><path d="M 22 32 L 27 32 L 27 60.308594 L 22 60.308594 Z M 22 32 " clip-rule="nonzero"/></clipPath><clipPath id="17e511a862"><path d="M 0.277344 11.722656 L 70.535156 11.722656 L 70.535156 49 L 0.277344 49 Z M 0.277344 11.722656 " clip-rule="nonzero"/></clipPath><clipPath id="17ca8bddf5"><path d="M 31.007812 51.800781 L 39.65625 51.800781 L 39.65625 60.449219 L 31.007812 60.449219 Z M 31.007812 51.800781 " clip-rule="nonzero"/></clipPath><clipPath id="eea895675b"><path d="M 35.332031 51.800781 C 32.941406 51.800781 31.007812 53.734375 31.007812 56.125 C 31.007812 58.511719 32.941406 60.449219 35.332031 60.449219 C 37.71875 60.449219 39.65625 58.511719 39.65625 56.125 C 39.65625 53.734375 37.71875 51.800781 35.332031 51.800781 Z M 35.332031 51.800781 " clip-rule="nonzero"/></clipPath></defs><path fill="#6b6b6b" d="M 11.183594 52.011719 C 11.183594 53.257812 12.191406 54.265625 13.433594 54.265625 L 13.4375 54.265625 C 14.679688 54.265625 15.6875 53.257812 15.6875 52.015625 L 15.703125 27.019531 L 11.203125 23.265625 L 11.183594 52.011719 " fill-opacity="1" fill-rule="nonzero"/><g clip-path="url(#3bdece90e7)"><path fill="#6b6b6b" d="M 44.015625 36.140625 L 44.03125 58.203125 C 44.03125 59.445312 45.039062 60.453125 46.285156 60.453125 C 47.527344 60.453125 48.535156 59.441406 48.535156 58.199219 L 48.515625 32.386719 L 44.015625 36.140625 " fill-opacity="1" fill-rule="nonzero"/></g><g clip-path="url(#527f9092bc)"><path fill="#6b6b6b" d="M 22.125 58.199219 C 22.125 59.441406 23.132812 60.453125 24.375 60.453125 L 24.378906 60.453125 C 25.621094 60.453125 26.628906 59.445312 26.628906 58.203125 L 26.644531 36.140625 L 22.144531 32.386719 L 22.125 58.199219 " fill-opacity="1" fill-rule="nonzero"/></g><path fill="#6b6b6b" d="M 54.957031 27.015625 L 54.972656 52.015625 C 54.972656 53.257812 55.980469 54.265625 57.226562 54.265625 C 58.46875 54.265625 59.476562 53.257812 59.476562 52.011719 L 59.457031 23.265625 L 54.957031 27.015625 " fill-opacity="1" fill-rule="nonzero"/><g clip-path="url(#17e511a862)"><path fill="#6b6b6b" d="M 69.261719 12.140625 C 68.570312 11.734375 67.71875 11.726562 67.023438 12.117188 L 35.328125 29.808594 L 3.636719 12.117188 C 2.941406 11.726562 2.089844 11.738281 1.398438 12.140625 C 0.710938 12.546875 0.289062 13.285156 0.289062 14.082031 L 0.296875 45.863281 C 0.296875 47.109375 1.304688 48.113281 2.550781 48.113281 C 3.792969 48.113281 4.800781 47.105469 4.800781 45.863281 L 4.792969 17.917969 L 34.230469 34.355469 C 34.914062 34.734375 35.746094 34.734375 36.429688 34.355469 L 65.867188 17.917969 L 65.863281 17.921875 L 65.867188 17.917969 L 65.859375 45.863281 C 65.859375 47.105469 66.867188 48.113281 68.109375 48.113281 C 68.734375 48.113281 69.296875 47.863281 69.703125 47.457031 C 70.113281 47.050781 70.363281 46.484375 70.363281 45.863281 L 70.375 14.082031 C 70.375 13.285156 69.949219 12.546875 69.261719 12.140625 " fill-opacity="1" fill-rule="nonzero"/></g><g clip-path="url(#17ca8bddf5)"><g clip-path="url(#eea895675b)"><path fill="#6b6b6b" d="M 31.007812 51.800781 L 39.65625 51.800781 L 39.65625 60.449219 L 31.007812 60.449219 Z M 31.007812 51.800781 " fill-opacity="1" fill-rule="nonzero"/></g></g><g fill="#242424" fill-opacity="1"><g transform="translate(72.998225, 49.081527)"><g><path d="M 25.5625 0 L 21.734375 0 L 7.1875 -22.265625 L 7.1875 0 L 3.359375 0 L 3.359375 -28.890625 L 7.1875 -28.890625 L 21.765625 -6.53125 L 21.765625 -28.890625 L 25.5625 -28.890625 Z M 25.5625 0 "/></g></g></g><g fill="#242424" fill-opacity="1"><g transform="translate(101.962905, 49.081527)"><g><path d="M 19.6875 -13.359375 L 7.15625 -13.359375 L 7.15625 -3.109375 L 21.703125 -3.109375 L 21.703125 0 L 3.359375 0 L 3.359375 -28.890625 L 21.515625 -28.890625 L 21.515625 -25.75 L 7.15625 -25.75 L 7.15625 -16.46875 L 19.6875 -16.46875 Z M 19.6875 -13.359375 "/></g></g></g><g fill="#242424" fill-opacity="1"><g transform="translate(125.055294, 49.081527)"><g><path d="M 12.78125 -17.8125 L 19.703125 -28.890625 L 24.1875 -28.890625 L 15.0625 -14.5625 L 24.40625 0 L 19.890625 0 L 12.78125 -11.265625 L 5.640625 0 L 1.125 0 L 10.5 -14.5625 L 1.34375 -28.890625 L 5.8125 -28.890625 Z M 12.78125 -17.8125 "/></g></g></g><g fill="#242424" fill-opacity="1"><g transform="translate(150.528341, 49.081527)"><g><path d="M 23.3125 -25.75 L 14.03125 -25.75 L 14.03125 0 L 10.234375 0 L 10.234375 -25.75 L 0.96875 -25.75 L 0.96875 -28.890625 L 23.3125 -28.890625 Z M 23.3125 -25.75 "/></g></g></g><g fill="#6b6b6b" fill-opacity="1"><g transform="translate(174.77737, 49.081527)"><g><path d="M 2.859375 -1.921875 C 2.859375 -2.554688 3.046875 -3.082031 3.421875 -3.5 C 3.796875 -3.925781 4.359375 -4.140625 5.109375 -4.140625 C 5.867188 -4.140625 6.441406 -3.925781 6.828125 -3.5 C 7.222656 -3.082031 7.421875 -2.554688 7.421875 -1.921875 C 7.421875 -1.316406 7.222656 -0.804688 6.828125 -0.390625 C 6.441406 0.015625 5.867188 0.21875 5.109375 0.21875 C 4.359375 0.21875 3.796875 0.015625 3.421875 -0.390625 C 3.046875 -0.804688 2.859375 -1.316406 2.859375 -1.921875 Z M 2.859375 -1.921875 "/></g></g></g><g fill="#242424" fill-opacity="1"><g transform="translate(185.474983, 49.081527)"><g><path d="M 3.359375 0 L 3.359375 -28.890625 L 11.515625 -28.890625 C 14.023438 -28.890625 16.242188 -28.332031 18.171875 -27.21875 C 20.109375 -26.113281 21.601562 -24.535156 22.65625 -22.484375 C 23.707031 -20.429688 24.238281 -18.078125 24.25 -15.421875 L 24.25 -13.578125 C 24.25 -10.847656 23.722656 -8.457031 22.671875 -6.40625 C 21.617188 -4.351562 20.113281 -2.78125 18.15625 -1.6875 C 16.207031 -0.59375 13.9375 -0.03125 11.34375 0 Z M 7.15625 -25.75 L 7.15625 -3.109375 L 11.171875 -3.109375 C 14.109375 -3.109375 16.394531 -4.019531 18.03125 -5.84375 C 19.664062 -7.675781 20.484375 -10.28125 20.484375 -13.65625 L 20.484375 -15.34375 C 20.484375 -18.625 19.710938 -21.171875 18.171875 -22.984375 C 16.628906 -24.804688 14.441406 -25.726562 11.609375 -25.75 Z M 7.15625 -25.75 "/></g></g></g><g fill="#242424" fill-opacity="1"><g transform="translate(212.118526, 49.081527)"><g><path d="M 19.6875 -13.359375 L 7.15625 -13.359375 L 7.15625 -3.109375 L 21.703125 -3.109375 L 21.703125 0 L 3.359375 0 L 3.359375 -28.890625 L 21.515625 -28.890625 L 21.515625 -25.75 L 7.15625 -25.75 L 7.15625 -16.46875 L 19.6875 -16.46875 Z M 19.6875 -13.359375 "/></g></g></g><g fill="#242424" fill-opacity="1"><g transform="translate(235.210915, 49.081527)"><g><path d="M 12.921875 -5.0625 L 21.171875 -28.890625 L 25.34375 -28.890625 L 14.625 0 L 11.25 0 L 0.5625 -28.890625 L 4.703125 -28.890625 Z M 12.921875 -5.0625 "/></g></g></g></svg>